# xmcd
#
# Track frame offsets:
#	150
#	9527
#	16554
#	31609
#	53824
#	67027
#	77393
#	106415
#	117008
#	129367
#	138301
#	150405
#	160614
#	175556
#	184830
#	207572
#	221100
#	243872
#	261427
#	268656
#
# Disc length: 3894 seconds
#
# Revision: 0
# Processed by: cddbd v1.5.2PL0 Copyright (c) Steve Scherf et al.
# Submitted via: EasyCDDAExtractor 16.0.6.1
#
DISCID=fe0f3414
DTITLE=Συλλογικός δίσκος - Όταν οι δρόμοι συναντιούνται-Χρ. Αηδονίδης 2
DYEAR=2004
DGENRE=Βυζ. Εκκλησιαστική
TTITLE0=Αηδονίδης Χρόνης - Εκ νεότητός μου [ήχος δ']
TTITLE1=Καραντζή Νεκταρία - Χαίρει η των Λακώνων πατρίς [ήχος α']
TTITLE2=Αηδονίδης Χρόνης - Παρήλθεν η σκιά του νόμου [ήχος β']
TTITLE3=Καραντζή Νεκταρία-χορός ψαλτών - Αλαλάξατε τω Κυρίω [ήχος πλ. β']
TTITLE4=Βερύκιος Δημήτρης-χορός ψαλτών - Αγαπήσω Σε [ήχος β']
TTITLE5=Αηδονίδης Χρόνης - Κατευθυνθήτω η προσευχή μου [ήχος πλ. α']
TTITLE6=Καραντζή Νεκταρία - Χερουβικόν [Χαριλ. Ταλιαδώρου, ήχος πλ. α']
TTITLE7=Αηδονίδης Χρόνης - Άξιόν εστιν [Ιακ. Ναυπλιώτου, ήχος πλ. α']
TTITLE8=Βερύκιος Δημήτρης-χορός ψαλτών - Αινείτε [ήχος γ']
TTITLE9=Βερύκιος Δημήτρης-χορός ψαλτών - Εν ταις λαμπρότησι των αγίων σου [ήχο
TTITLE9=ος α']
TTITLE10=Αηδονίδης Χρόνης - Δοξολογία [ήχος δευτερόπρωτος]
TTITLE11=Καραντζή Νεκταρία-χορός ψαλτών - Σε υμνούμεν [Κων. Πρίγγου, ήχος α']
TTITLE12=Αηδονίδης Χρόνης - Εξέδυσάν με [ήχος πλ. β']
TTITLE13=Καραντζή Νεκταρία - Μη αποστρέψης [ήχος πλ. δ']
TTITLE14=Βερύκιος Δημήτρης-χορός ψαλτών - Ικετεύομεν [ήχος α']
TTITLE15=Αηδονίδης Χρόνης - Εις το μνήμα [ήχος γ']
TTITLE16=Καραντζή Νεκταρία-χορός ψαλτών - Πάτερ αγαθέ [Χρυσ. Θεοδοσοπούλου, ήχ
TTITLE16=ος πλ. β']
TTITLE17=Καραντζή Νεκταρία-Αηδονίδης Χ.-χορ. ψαλτών - Εξομολογείσθε [ήχοι: α',
TTITLE17=πλ. δ',πλ. β',βαρύς διατ/ός]
TTITLE18=Αηδονίδης Χρόνης - Χαίροις των ασκητών καλλονή [ήχος πλ. α']
TTITLE19=Καραντζή Νεκταρία-Αηδονίδης Χρόνης - Τρισάγιος Ύμνος [Κυριακού Ιωαννί
TTITLE19=δου καλογ., ήχος πλ. α']
EXTD=
EXTT0=
EXTT1=
EXTT2=
EXTT3=
EXTT4=
EXTT5=
EXTT6=
EXTT7=
EXTT8=
EXTT9=
EXTT10=
EXTT11=
EXTT12=
EXTT13=
EXTT14=
EXTT15=
EXTT16=
EXTT17=
EXTT18=
EXTT19=
PLAYORDER=
